<?plantuml 1.2026.2beta3?><svg xmlns="http://www.w3.org/2000/svg" xmlns:xlink="http://www.w3.org/1999/xlink" height="284px" preserveAspectRatio="none" style="width:379px;height:284px;background:#FFFFFF;" version="1.1" viewBox="0 0 379 284" width="379px" zoomAndPan="magnify"><defs></defs><g><g class="entity" id="ent0002"><rect fill="#F1F1F1" height="80.5938" rx="2.5" ry="2.5" style="stroke:#181818;stroke-width:0.5;" width="365.9922" x="7" y="7"></rect><ellipse cx="118.5693" cy="23" fill="#ADD1B2" rx="11" ry="11" style="stroke:#181818;stroke-width:1;"></ellipse><path d="M121.5381,28.6406 Q120.96,28.9375 120.3193,29.0781 Q119.6787,29.2344 118.9756,29.2344 Q116.4756,29.2344 115.1475,27.5938 Q113.835,25.9375 113.835,22.8125 Q113.835,19.6875 115.1475,18.0313 Q116.4756,16.375 118.9756,16.375 Q119.6787,16.375 120.3193,16.5313 Q120.9756,16.6875 121.5381,16.9844 L121.5381,19.7031 Q120.9131,19.125 120.3193,18.8594 Q119.7256,18.5781 119.1006,18.5781 Q117.7568,18.5781 117.0693,19.6563 Q116.3818,20.7188 116.3818,22.8125 Q116.3818,24.9063 117.0693,25.9844 Q117.7568,27.0469 119.1006,27.0469 Q119.7256,27.0469 120.3193,26.7813 Q120.9131,26.5 121.5381,25.9219 L121.5381,28.6406 Z " fill="#000000"></path><text fill="#000000" font-family="sans-serif" font-size="14" lengthAdjust="spacing" textLength="134.3535" x="139.0693" y="27.8467">GenericPayloadDto</text><line style="stroke:#181818;stroke-width:0.5;" x1="8" x2="371.9922" y1="39" y2="39"></line><g><ellipse cx="18" cy="52.6484" fill="none" rx="3" ry="3" style="stroke:#038048;stroke-width:1;"></ellipse></g><text fill="#000000" font-family="sans-serif" font-size="14" lengthAdjust="spacing" textLength="76.4805" x="27" y="55.9951">Status : int</text><g><ellipse cx="18" cy="68.9453" fill="none" rx="3" ry="3" style="stroke:#038048;stroke-width:1;"></ellipse></g><text fill="#000000" font-family="sans-serif" font-size="14" lengthAdjust="spacing" textLength="339.9922" x="27" y="72.292">AdditionalProperties : Dictionary&lt;string, string&gt;</text><line style="stroke:#181818;stroke-width:0.5;" x1="8" x2="371.9922" y1="79.5938" y2="79.5938"></line></g><g class="entity" id="ent0003"><rect fill="#F1F1F1" height="129.4844" rx="2.5" ry="2.5" style="stroke:#181818;stroke-width:0.5;" width="119.9326" x="130.03" y="147.6"></rect><ellipse cx="146.4152" cy="163.6" fill="#EB937F" rx="11" ry="11" style="stroke:#181818;stroke-width:1;"></ellipse><path d="M150.5245,169.6 L142.8058,169.6 L142.8058,157.2094 L150.5245,157.2094 L150.5245,159.3656 L145.2589,159.3656 L145.2589,162.0375 L150.0245,162.0375 L150.0245,164.1938 L145.2589,164.1938 L145.2589,167.4438 L150.5245,167.4438 L150.5245,169.6 Z " fill="#000000"></path><text fill="#000000" font-family="sans-serif" font-size="14" lengthAdjust="spacing" textLength="84.8545" x="160.723" y="168.4467">BatchStatus</text><line style="stroke:#181818;stroke-width:0.5;" x1="131.03" x2="248.9626" y1="179.6" y2="179.6"></line><text fill="#000000" font-family="sans-serif" font-size="14" lengthAdjust="spacing" textLength="104.5352" x="136.03" y="196.5951">Requested = 0</text><text fill="#000000" font-family="sans-serif" font-size="14" lengthAdjust="spacing" textLength="107.9326" x="136.03" y="212.892">Incomplete = 1</text><text fill="#000000" font-family="sans-serif" font-size="14" lengthAdjust="spacing" textLength="97.2207" x="136.03" y="229.1889">Preparing = 2</text><text fill="#000000" font-family="sans-serif" font-size="14" lengthAdjust="spacing" textLength="73.6299" x="136.03" y="245.4857">Ready = 3</text><text fill="#000000" font-family="sans-serif" font-size="14" lengthAdjust="spacing" textLength="85.3125" x="136.03" y="261.7826">Aborted = 4</text><line style="stroke:#181818;stroke-width:0.5;" x1="131.03" x2="248.9626" y1="269.0844" y2="269.0844"></line></g><g class="link" id="lnk4"><path d="M190,87.77 C190,105.58 190,121.08 190,141.12" fill="none" id="GenericPayloadDto-to-BatchStatus" style="stroke:#181818;stroke-width:1;"></path><polygon fill="#181818" points="190,147.12,194,138.12,190,142.12,186,138.12,190,147.12" style="stroke:#181818;stroke-width:1;"></polygon></g><?plantuml-src POxD2i8m48JlUOgzQy6_asYXKX1lHPzWJHODf4dTR0v5V7UJzY9usjblcPdL3cE4CtbYgpiSNK3JIe2t0bZ0JL1IX3rOBnDeZB5YWqVNSHY8nL8vjrPFbCT35BR-iOHvrkgZ5FdK0vnGz7CEBE5NUYMAGWQEiChxnUlG3uw4CbXdq34DM3BolfaCQCQijratzy2pTLSA_j-lglgty0i0?></g></svg>