<?plantuml 1.2026.2beta3?><svg xmlns="http://www.w3.org/2000/svg" xmlns:xlink="http://www.w3.org/1999/xlink" height="284px" preserveAspectRatio="none" style="width:379px;height:284px;background:#FFFFFF;" version="1.1" viewBox="0 0 379 284" width="379px" zoomAndPan="magnify"><defs></defs><g><g class="entity" id="ent0002"><rect fill="#F1F1F1" height="80.5938" rx="2.5" ry="2.5" style="stroke:#181818;stroke-width:0.5;" width="365.9922" x="7" y="7"></rect><ellipse cx="118.5693" cy="23" fill="#ADD1B2" rx="11" ry="11" style="stroke:#181818;stroke-width:1;"></ellipse><path d="M121.5381,28.6406 Q120.96,28.9375 120.3193,29.0781 Q119.6787,29.2344 118.9756,29.2344 Q116.4756,29.2344 115.1475,27.5938 Q113.835,25.9375 113.835,22.8125 Q113.835,19.6875 115.1475,18.0313 Q116.4756,16.375 118.9756,16.375 Q119.6787,16.375 120.3193,16.5313 Q120.9756,16.6875 121.5381,16.9844 L121.5381,19.7031 Q120.9131,19.125 120.3193,18.8594 Q119.7256,18.5781 119.1006,18.5781 Q117.7568,18.5781 117.0693,19.6563 Q116.3818,20.7188 116.3818,22.8125 Q116.3818,24.9063 117.0693,25.9844 Q117.7568,27.0469 119.1006,27.0469 Q119.7256,27.0469 120.3193,26.7813 Q120.9131,26.5 121.5381,25.9219 L121.5381,28.6406 Z " fill="#000000"></path><text fill="#000000" font-family="sans-serif" font-size="14" lengthAdjust="spacing" textLength="134.3535" x="139.0693" y="27.8467">GenericPayloadDto</text><line style="stroke:#181818;stroke-width:0.5;" x1="8" x2="371.9922" y1="39" y2="39"></line><g><ellipse cx="18" cy="52.6484" fill="none" rx="3" ry="3" style="stroke:#038048;stroke-width:1;"></ellipse></g><text fill="#000000" font-family="sans-serif" font-size="14" lengthAdjust="spacing" textLength="76.4805" x="27" y="55.9951">Status : int</text><g><ellipse cx="18" cy="68.9453" fill="none" rx="3" ry="3" style="stroke:#038048;stroke-width:1;"></ellipse></g><text fill="#000000" font-family="sans-serif" font-size="14" lengthAdjust="spacing" textLength="339.9922" x="27" y="72.292">AdditionalProperties : Dictionary&lt;string, string&gt;</text><line style="stroke:#181818;stroke-width:0.5;" x1="8" x2="371.9922" y1="79.5938" y2="79.5938"></line></g><g class="entity" id="ent0003"><rect fill="#F1F1F1" height="129.4844" rx="2.5" ry="2.5" style="stroke:#181818;stroke-width:0.5;" width="116.5352" x="131.73" y="147.6"></rect><ellipse cx="152.3326" cy="163.6" fill="#EB937F" rx="11" ry="11" style="stroke:#181818;stroke-width:1;"></ellipse><path d="M156.442,169.6 L148.7232,169.6 L148.7232,157.2094 L156.442,157.2094 L156.442,159.3656 L151.1763,159.3656 L151.1763,162.0375 L155.942,162.0375 L155.942,164.1938 L151.1763,164.1938 L151.1763,167.4438 L156.442,167.4438 L156.442,169.6 Z " fill="#000000"></path><text fill="#000000" font-family="sans-serif" font-size="14" lengthAdjust="spacing" textLength="72.085" x="167.5776" y="168.4467">RunStatus</text><line style="stroke:#181818;stroke-width:0.5;" x1="132.73" x2="247.2652" y1="179.6" y2="179.6"></line><text fill="#000000" font-family="sans-serif" font-size="14" lengthAdjust="spacing" textLength="104.5352" x="137.73" y="196.5951">Requested = 0</text><text fill="#000000" font-family="sans-serif" font-size="14" lengthAdjust="spacing" textLength="85.0938" x="137.73" y="212.892">Inactive = 1</text><text fill="#000000" font-family="sans-serif" font-size="14" lengthAdjust="spacing" textLength="73.0898" x="137.73" y="229.1889">Active = 2</text><text fill="#000000" font-family="sans-serif" font-size="14" lengthAdjust="spacing" textLength="66.3701" x="137.73" y="245.4857">Done = 3</text><text fill="#000000" font-family="sans-serif" font-size="14" lengthAdjust="spacing" textLength="85.3125" x="137.73" y="261.7826">Aborted = 4</text><line style="stroke:#181818;stroke-width:0.5;" x1="132.73" x2="247.2652" y1="269.0844" y2="269.0844"></line></g><g class="link" id="lnk4"><path d="M190,87.77 C190,105.58 190,121.08 190,141.12" fill="none" id="GenericPayloadDto-to-RunStatus" style="stroke:#181818;stroke-width:1;"></path><polygon fill="#181818" points="190,147.12,194,138.12,190,142.12,186,138.12,190,147.12" style="stroke:#181818;stroke-width:1;"></polygon></g><?plantuml-src POxF2i8m38VlVOhSTU2_a-XWK11lOpv1NOC4QZhRL1ZYkzjkY0TFoVSB-PBUcHZXX8o1-jQCpXkhnSDB0IpW8aPIX3qGonGqrfAGP-FQu0SCGbZ6clef3UCXIY2-BM6kjNehXPpk05tYMLVK7JuIHa4BHrXbFhF9XYTcN6Tilh39e3sNTblogm_pqgw8_z-kglftw0C0?></g></svg>